<svg width="162" height="138" viewBox="0 0 162 138" fill="none" xmlns="http://www.w3.org/2000/svg">
<path d="M1 -1C26.5728 -0.829519 76 6.17705 76 55C76 99.5872 133.09 137 162 137V65.9988V-1H1Z" fill="#0B62FE"/>
<path d="M1 -1V-1.5L0.996667 -0.500011L1 -1ZM162 137V137.5H162.5V137H162ZM162 -1H162.5V-1.5H162V-1ZM0.996667 -0.500011C13.7555 -0.414955 32.4133 1.37762 47.8639 9.20139C55.5826 13.1099 62.4866 18.5164 67.4618 25.9548C72.4348 33.3897 75.5 42.8831 75.5 55H76.5C76.5 42.7055 73.3868 33.0144 68.293 25.3988C63.2015 17.7867 56.1505 12.2766 48.3157 8.30925C32.6595 0.38138 13.8173 -1.41456 1.00333 -1.49999L0.996667 -0.500011ZM75.5 55C75.5 77.5064 89.8993 98.1335 107.838 113.104C116.816 120.596 126.702 126.691 136.162 130.914C145.616 135.134 154.677 137.5 162 137.5V136.5C154.868 136.5 145.951 134.189 136.57 130.001C127.195 125.816 117.388 119.771 108.479 112.336C90.6455 97.4537 76.5 77.0809 76.5 55H75.5ZM162 -1.5H1V-0.5H162V-1.5ZM162.5 137V65.9988H161.5V137H162.5ZM162.5 65.9988V-1H161.5V65.9988H162.5Z" fill="#0B62FE"/>
<path d="M215 16.5C215 42.1812 190.518 63 160.317 63C130.117 63 97 42.1812 97 16.5C97 -9.18124 130.117 -30 160.317 -30C190.518 -30 215 -9.18124 215 16.5Z" fill="#0D2551"/>
</svg>
